solid Default
  facet normal 1.000000e+00 0.000000e+00 0.000000e+00
    outer loop
      vertex 8.749992e+00 -3.999992e+00 2.499994e+00
      vertex 8.749992e+00 3.999992e+00 2.499994e+00
      vertex 8.749992e+00 -3.999992e+00 5.499990e+00
    endloop
  endfacet
  facet normal 1.000000e+00 0.000000e+00 0.000000e+00
    outer loop
      vertex 8.749992e+00 -3.999992e+00 5.499990e+00
      vertex 8.749992e+00 3.999992e+00 2.499994e+00
      vertex 8.749992e+00 3.999992e+00 5.499990e+00
    endloop
  endfacet
  facet normal 0.000000e+00 -1.000000e+00 6.123234e-17
    outer loop
      vertex -8.749992e+00 -3.999992e+00 2.499994e+00
      vertex 8.749992e+00 -3.999992e+00 2.499994e+00
      vertex -8.749992e+00 -3.999992e+00 5.499990e+00
    endloop
  endfacet
  facet normal 0.000000e+00 -1.000000e+00 6.123234e-17
    outer loop
      vertex -8.749992e+00 -3.999992e+00 5.499990e+00
      vertex 8.749992e+00 -3.999992e+00 2.499994e+00
      vertex 8.749992e+00 -3.999992e+00 5.499990e+00
    endloop
  endfacet
  facet normal -1.000000e+00 0.000000e+00 0.000000e+00
    outer loop
      vertex -8.749992e+00 3.999992e+00 2.499994e+00
      vertex -8.749992e+00 -3.999992e+00 2.499994e+00
      vertex -8.749992e+00 3.999992e+00 5.499990e+00
    endloop
  endfacet
  facet normal -1.000000e+00 0.000000e+00 0.000000e+00
    outer loop
      vertex -8.749992e+00 3.999992e+00 5.499990e+00
      vertex -8.749992e+00 -3.999992e+00 2.499994e+00
      vertex -8.749992e+00 -3.999992e+00 5.499990e+00
    endloop
  endfacet
  facet normal 0.000000e+00 1.000000e+00 -6.123234e-17
    outer loop
      vertex 8.749992e+00 3.999992e+00 2.499994e+00
      vertex -8.749992e+00 3.999992e+00 2.499994e+00
      vertex 8.749992e+00 3.999992e+00 5.499990e+00
    endloop
  endfacet
  facet normal 0.000000e+00 1.000000e+00 -6.123234e-17
    outer loop
      vertex 8.749992e+00 3.999992e+00 5.499990e+00
      vertex -8.749992e+00 3.999992e+00 2.499994e+00
      vertex -8.749992e+00 3.999992e+00 5.499990e+00
    endloop
  endfacet
  facet normal 0.000000e+00 -6.123234e-17 -1.000000e+00
    outer loop
      vertex -5.874870e+00 1.340584e+00 2.499994e+00
      vertex -6.090584e+00 1.124870e+00 2.499994e+00
      vertex -8.749992e+00 3.999992e+00 2.499994e+00
    endloop
  endfacet
  facet normal 0.000000e+00 -6.123234e-17 -1.000000e+00
    outer loop
      vertex -5.053871e+00 1.723412e+00 2.499994e+00
      vertex -5.348534e+00 1.644463e+00 2.499994e+00
      vertex -8.749992e+00 3.999992e+00 2.499994e+00
    endloop
  endfacet
  facet normal 0.000000e+00 -6.123234e-17 -1.000000e+00
    outer loop
      vertex -8.749992e+00 3.999992e+00 2.499994e+00
      vertex -5.348534e+00 1.644463e+00 2.499994e+00
      vertex -5.625008e+00 1.515556e+00 2.499994e+00
    endloop
  endfacet
  facet normal 0.000000e+00 -6.123234e-17 -1.000000e+00
    outer loop
      vertex -8.749992e+00 3.999992e+00 2.499994e+00
      vertex -5.625008e+00 1.515556e+00 2.499994e+00
      vertex -5.874870e+00 1.340584e+00 2.499994e+00
    endloop
  endfacet
  facet normal 0.000000e+00 -6.123234e-17 -1.000000e+00
    outer loop
      vertex -6.473427e+00 -3.038864e-01 2.499994e+00
      vertex -8.749992e+00 -3.999992e+00 2.499994e+00
      vertex -6.500008e+00 -7.629395e-06 2.499994e+00
    endloop
  endfacet
  facet normal 0.000000e+00 -6.123234e-17 -1.000000e+00
    outer loop
      vertex -6.500008e+00 -7.629395e-06 2.499994e+00
      vertex -8.749992e+00 -3.999992e+00 2.499994e+00
      vertex -8.749992e+00 3.999992e+00 2.499994e+00
    endloop
  endfacet
  facet normal 0.000000e+00 -6.123234e-17 -1.000000e+00
    outer loop
      vertex -6.500008e+00 -7.629395e-06 2.499994e+00
      vertex -8.749992e+00 3.999992e+00 2.499994e+00
      vertex -6.473427e+00 3.038712e-01 2.499994e+00
    endloop
  endfacet
  facet normal 0.000000e+00 -6.123234e-17 -1.000000e+00
    outer loop
      vertex -6.473427e+00 -3.038864e-01 2.499994e+00
      vertex -6.394463e+00 -5.985336e-01 2.499994e+00
      vertex -8.749992e+00 -3.999992e+00 2.499994e+00
    endloop
  endfacet
  facet normal 0.000000e+00 -6.123234e-17 -1.000000e+00
    outer loop
      vertex -8.749992e+00 -3.999992e+00 2.499994e+00
      vertex -6.394463e+00 -5.985336e-01 2.499994e+00
      vertex -6.265556e+00 -8.749924e-01 2.499994e+00
    endloop
  endfacet
  facet normal 0.000000e+00 -6.123234e-17 -1.000000e+00
    outer loop
      vertex -8.749992e+00 -3.999992e+00 2.499994e+00
      vertex -6.265556e+00 -8.749924e-01 2.499994e+00
      vertex -6.090584e+00 -1.124870e+00 2.499994e+00
    endloop
  endfacet
  facet normal 0.000000e+00 -6.123234e-17 -1.000000e+00
    outer loop
      vertex 8.749992e+00 3.999992e+00 2.499994e+00
      vertex 4.750008e+00 1.750008e+00 2.499994e+00
      vertex -8.749992e+00 3.999992e+00 2.499994e+00
    endloop
  endfacet
  facet normal 0.000000e+00 -6.123234e-17 -1.000000e+00
    outer loop
      vertex -8.749992e+00 3.999992e+00 2.499994e+00
      vertex 4.750008e+00 1.750008e+00 2.499994e+00
      vertex 4.446114e+00 1.723412e+00 2.499994e+00
    endloop
  endfacet
  facet normal 0.000000e+00 -6.123234e-17 -1.000000e+00
    outer loop
      vertex -8.749992e+00 3.999992e+00 2.499994e+00
      vertex 4.446114e+00 1.723412e+00 2.499994e+00
      vertex 4.151466e+00 1.644463e+00 2.499994e+00
    endloop
  endfacet
  facet normal 0.000000e+00 -6.123234e-17 -1.000000e+00
    outer loop
      vertex 4.151466e+00 1.644463e+00 2.499994e+00
      vertex 3.875008e+00 1.515556e+00 2.499994e+00
      vertex -8.749992e+00 3.999992e+00 2.499994e+00
    endloop
  endfacet
  facet normal 0.000000e+00 -6.123234e-17 -1.000000e+00
    outer loop
      vertex -8.749992e+00 3.999992e+00 2.499994e+00
      vertex 3.875008e+00 1.515556e+00 2.499994e+00
      vertex 3.625130e+00 1.340584e+00 2.499994e+00
    endloop
  endfacet
  facet normal 0.000000e+00 -6.123234e-17 -1.000000e+00
    outer loop
      vertex -8.749992e+00 3.999992e+00 2.499994e+00
      vertex 3.625130e+00 1.340584e+00 2.499994e+00
      vertex 3.409416e+00 1.124870e+00 2.499994e+00
    endloop
  endfacet
  facet normal 0.000000e+00 -6.123234e-17 -1.000000e+00
    outer loop
      vertex -6.090584e+00 1.124870e+00 2.499994e+00
      vertex -6.265556e+00 8.749924e-01 2.499994e+00
      vertex -8.749992e+00 3.999992e+00 2.499994e+00
    endloop
  endfacet
  facet normal 0.000000e+00 -6.123234e-17 -1.000000e+00
    outer loop
      vertex -8.749992e+00 3.999992e+00 2.499994e+00
      vertex -6.265556e+00 8.749924e-01 2.499994e+00
      vertex -6.394463e+00 5.985336e-01 2.499994e+00
    endloop
  endfacet
  facet normal 0.000000e+00 -6.123234e-17 -1.000000e+00
    outer loop
      vertex -8.749992e+00 3.999992e+00 2.499994e+00
      vertex -6.394463e+00 5.985336e-01 2.499994e+00
      vertex -6.473427e+00 3.038712e-01 2.499994e+00
    endloop
  endfacet
  facet normal 0.000000e+00 -6.123234e-17 -1.000000e+00
    outer loop
      vertex -6.090584e+00 -1.124870e+00 2.499994e+00
      vertex -5.874870e+00 -1.340584e+00 2.499994e+00
      vertex -8.749992e+00 -3.999992e+00 2.499994e+00
    endloop
  endfacet
  facet normal 0.000000e+00 -6.123234e-17 -1.000000e+00
    outer loop
      vertex -8.749992e+00 -3.999992e+00 2.499994e+00
      vertex -5.874870e+00 -1.340584e+00 2.499994e+00
      vertex -5.625008e+00 -1.515541e+00 2.499994e+00
    endloop
  endfacet
  facet normal 0.000000e+00 -6.123234e-17 -1.000000e+00
    outer loop
      vertex -8.749992e+00 -3.999992e+00 2.499994e+00
      vertex -5.625008e+00 -1.515541e+00 2.499994e+00
      vertex -5.348534e+00 -1.644463e+00 2.499994e+00
    endloop
  endfacet
  facet normal 0.000000e+00 -6.123234e-17 -1.000000e+00
    outer loop
      vertex -5.348534e+00 -1.644463e+00 2.499994e+00
      vertex -5.053871e+00 -1.723412e+00 2.499994e+00
      vertex -8.749992e+00 -3.999992e+00 2.499994e+00
    endloop
  endfacet
  facet normal 0.000000e+00 -6.123234e-17 -1.000000e+00
    outer loop
      vertex -8.749992e+00 -3.999992e+00 2.499994e+00
      vertex -5.053871e+00 -1.723412e+00 2.499994e+00
      vertex -4.749992e+00 -1.750008e+00 2.499994e+00
    endloop
  endfacet
  facet normal 0.000000e+00 -6.123234e-17 -1.000000e+00
    outer loop
      vertex -8.749992e+00 -3.999992e+00 2.499994e+00
      vertex -4.749992e+00 -1.750008e+00 2.499994e+00
      vertex 8.749992e+00 -3.999992e+00 2.499994e+00
    endloop
  endfacet
  facet normal 0.000000e+00 -6.123234e-17 -1.000000e+00
    outer loop
      vertex 8.749992e+00 -3.999992e+00 2.499994e+00
      vertex -4.749992e+00 -1.750008e+00 2.499994e+00
      vertex -4.446114e+00 -1.723412e+00 2.499994e+00
    endloop
  endfacet
  facet normal 0.000000e+00 -6.123234e-17 -1.000000e+00
    outer loop
      vertex 8.749992e+00 -3.999992e+00 2.499994e+00
      vertex -4.446114e+00 -1.723412e+00 2.499994e+00
      vertex -4.151466e+00 -1.644463e+00 2.499994e+00
    endloop
  endfacet
  facet normal 0.000000e+00 -6.123234e-17 -1.000000e+00
    outer loop
      vertex -4.151466e+00 -1.644463e+00 2.499994e+00
      vertex -3.875008e+00 -1.515541e+00 2.499994e+00
      vertex 8.749992e+00 -3.999992e+00 2.499994e+00
    endloop
  endfacet
  facet normal 0.000000e+00 -6.123234e-17 -1.000000e+00
    outer loop
      vertex 8.749992e+00 -3.999992e+00 2.499994e+00
      vertex -3.875008e+00 -1.515541e+00 2.499994e+00
      vertex -3.625130e+00 -1.340584e+00 2.499994e+00
    endloop
  endfacet
  facet normal 0.000000e+00 -6.123234e-17 -1.000000e+00
    outer loop
      vertex 8.749992e+00 -3.999992e+00 2.499994e+00
      vertex -3.625130e+00 -1.340584e+00 2.499994e+00
      vertex -3.409416e+00 -1.124870e+00 2.499994e+00
    endloop
  endfacet
  facet normal 0.000000e+00 -6.123234e-17 -1.000000e+00
    outer loop
      vertex -3.026588e+00 -3.038864e-01 2.499994e+00
      vertex -2.999992e+00 -7.629395e-06 2.499994e+00
      vertex 8.749992e+00 -3.999992e+00 2.499994e+00
    endloop
  endfacet
  facet normal 0.000000e+00 -6.123234e-17 -1.000000e+00
    outer loop
      vertex 8.749992e+00 -3.999992e+00 2.499994e+00
      vertex -2.999992e+00 -7.629395e-06 2.499994e+00
      vertex -3.026588e+00 3.038712e-01 2.499994e+00
    endloop
  endfacet
  facet normal 0.000000e+00 -6.123234e-17 -1.000000e+00
    outer loop
      vertex 8.749992e+00 -3.999992e+00 2.499994e+00
      vertex -3.026588e+00 3.038712e-01 2.499994e+00
      vertex -3.105537e+00 5.985336e-01 2.499994e+00
    endloop
  endfacet
  facet normal 0.000000e+00 -6.123234e-17 -1.000000e+00
    outer loop
      vertex -3.409416e+00 -1.124870e+00 2.499994e+00
      vertex -3.234444e+00 -8.749924e-01 2.499994e+00
      vertex 8.749992e+00 -3.999992e+00 2.499994e+00
    endloop
  endfacet
  facet normal 0.000000e+00 -6.123234e-17 -1.000000e+00
    outer loop
      vertex 8.749992e+00 -3.999992e+00 2.499994e+00
      vertex -3.234444e+00 -8.749924e-01 2.499994e+00
      vertex -3.105537e+00 -5.985336e-01 2.499994e+00
    endloop
  endfacet
  facet normal 0.000000e+00 -6.123234e-17 -1.000000e+00
    outer loop
      vertex 8.749992e+00 -3.999992e+00 2.499994e+00
      vertex -3.105537e+00 -5.985336e-01 2.499994e+00
      vertex -3.026588e+00 -3.038864e-01 2.499994e+00
    endloop
  endfacet
  facet normal 0.000000e+00 -6.123234e-17 -1.000000e+00
    outer loop
      vertex 3.409416e+00 1.124870e+00 2.499994e+00
      vertex 3.234444e+00 8.749924e-01 2.499994e+00
      vertex -8.749992e+00 3.999992e+00 2.499994e+00
    endloop
  endfacet
  facet normal 0.000000e+00 -6.123234e-17 -1.000000e+00
    outer loop
      vertex -8.749992e+00 3.999992e+00 2.499994e+00
      vertex 3.234444e+00 8.749924e-01 2.499994e+00
      vertex 3.105537e+00 5.985336e-01 2.499994e+00
    endloop
  endfacet
  facet normal 0.000000e+00 -6.123234e-17 -1.000000e+00
    outer loop
      vertex -8.749992e+00 3.999992e+00 2.499994e+00
      vertex 3.105537e+00 5.985336e-01 2.499994e+00
      vertex 3.026573e+00 3.038712e-01 2.499994e+00
    endloop
  endfacet
  facet normal 0.000000e+00 -6.123234e-17 -1.000000e+00
    outer loop
      vertex -3.105537e+00 5.985336e-01 2.499994e+00
      vertex -3.234444e+00 8.749924e-01 2.499994e+00
      vertex 8.749992e+00 -3.999992e+00 2.499994e+00
    endloop
  endfacet
  facet normal 0.000000e+00 -6.123234e-17 -1.000000e+00
    outer loop
      vertex 8.749992e+00 -3.999992e+00 2.499994e+00
      vertex -3.234444e+00 8.749924e-01 2.499994e+00
      vertex -3.409416e+00 1.124870e+00 2.499994e+00
    endloop
  endfacet
  facet normal 0.000000e+00 -6.123234e-17 -1.000000e+00
    outer loop
      vertex 8.749992e+00 -3.999992e+00 2.499994e+00
      vertex -3.409416e+00 1.124870e+00 2.499994e+00
      vertex -3.625130e+00 1.340584e+00 2.499994e+00
    endloop
  endfacet
  facet normal 0.000000e+00 -6.123234e-17 -1.000000e+00
    outer loop
      vertex 3.026573e+00 3.038712e-01 2.499994e+00
      vertex 2.999992e+00 -7.629395e-06 2.499994e+00
      vertex -8.749992e+00 3.999992e+00 2.499994e+00
    endloop
  endfacet
  facet normal 0.000000e+00 -6.123234e-17 -1.000000e+00
    outer loop
      vertex -8.749992e+00 3.999992e+00 2.499994e+00
      vertex 2.999992e+00 -7.629395e-06 2.499994e+00
      vertex 3.026573e+00 -3.038864e-01 2.499994e+00
    endloop
  endfacet
  facet normal 0.000000e+00 -6.123234e-17 -1.000000e+00
    outer loop
      vertex -8.749992e+00 3.999992e+00 2.499994e+00
      vertex 3.026573e+00 -3.038864e-01 2.499994e+00
      vertex 3.105537e+00 -5.985336e-01 2.499994e+00
    endloop
  endfacet
  facet normal 0.000000e+00 -6.123234e-17 -1.000000e+00
    outer loop
      vertex -4.151466e+00 1.644463e+00 2.499994e+00
      vertex -4.446114e+00 1.723412e+00 2.499994e+00
      vertex -8.749992e+00 3.999992e+00 2.499994e+00
    endloop
  endfacet
  facet normal 0.000000e+00 -6.123234e-17 -1.000000e+00
    outer loop
      vertex -8.749992e+00 3.999992e+00 2.499994e+00
      vertex -4.446114e+00 1.723412e+00 2.499994e+00
      vertex -4.749992e+00 1.750008e+00 2.499994e+00
    endloop
  endfacet
  facet normal 0.000000e+00 -6.123234e-17 -1.000000e+00
    outer loop
      vertex -8.749992e+00 3.999992e+00 2.499994e+00
      vertex -4.749992e+00 1.750008e+00 2.499994e+00
      vertex -5.053871e+00 1.723412e+00 2.499994e+00
    endloop
  endfacet
  facet normal 0.000000e+00 -6.123234e-17 -1.000000e+00
    outer loop
      vertex 8.749992e+00 3.999992e+00 2.499994e+00
      vertex 5.874870e+00 1.340584e+00 2.499994e+00
      vertex 5.625008e+00 1.515556e+00 2.499994e+00
    endloop
  endfacet
  facet normal 0.000000e+00 -6.123234e-17 -1.000000e+00
    outer loop
      vertex 4.446114e+00 -1.723412e+00 2.499994e+00
      vertex 4.750008e+00 -1.750008e+00 2.499994e+00
      vertex 8.749992e+00 -3.999992e+00 2.499994e+00
    endloop
  endfacet
  facet normal 0.000000e+00 -6.123234e-17 -1.000000e+00
    outer loop
      vertex 8.749992e+00 -3.999992e+00 2.499994e+00
      vertex 4.750008e+00 -1.750008e+00 2.499994e+00
      vertex 5.053886e+00 -1.723412e+00 2.499994e+00
    endloop
  endfacet
  facet normal 0.000000e+00 -6.123234e-17 -1.000000e+00
    outer loop
      vertex 5.625008e+00 1.515556e+00 2.499994e+00
      vertex 5.348534e+00 1.644463e+00 2.499994e+00
      vertex 8.749992e+00 3.999992e+00 2.499994e+00
    endloop
  endfacet
  facet normal 0.000000e+00 -6.123234e-17 -1.000000e+00
    outer loop
      vertex 8.749992e+00 3.999992e+00 2.499994e+00
      vertex 5.348534e+00 1.644463e+00 2.499994e+00
      vertex 5.053886e+00 1.723412e+00 2.499994e+00
    endloop
  endfacet
  facet normal 0.000000e+00 -6.123234e-17 -1.000000e+00
    outer loop
      vertex 8.749992e+00 3.999992e+00 2.499994e+00
      vertex 5.053886e+00 1.723412e+00 2.499994e+00
      vertex 4.750008e+00 1.750008e+00 2.499994e+00
    endloop
  endfacet
  facet normal 0.000000e+00 -6.123234e-17 -1.000000e+00
    outer loop
      vertex 3.105537e+00 -5.985336e-01 2.499994e+00
      vertex 3.234444e+00 -8.749924e-01 2.499994e+00
      vertex -8.749992e+00 3.999992e+00 2.499994e+00
    endloop
  endfacet
  facet normal 0.000000e+00 -6.123234e-17 -1.000000e+00
    outer loop
      vertex -8.749992e+00 3.999992e+00 2.499994e+00
      vertex 3.234444e+00 -8.749924e-01 2.499994e+00
      vertex 3.409416e+00 -1.124870e+00 2.499994e+00
    endloop
  endfacet
  facet normal 0.000000e+00 -6.123234e-17 -1.000000e+00
    outer loop
      vertex -8.749992e+00 3.999992e+00 2.499994e+00
      vertex 3.409416e+00 -1.124870e+00 2.499994e+00
      vertex 3.625130e+00 -1.340584e+00 2.499994e+00
    endloop
  endfacet
  facet normal 0.000000e+00 -6.123234e-17 -1.000000e+00
    outer loop
      vertex 5.053886e+00 -1.723412e+00 2.499994e+00
      vertex 5.348534e+00 -1.644463e+00 2.499994e+00
      vertex 8.749992e+00 -3.999992e+00 2.499994e+00
    endloop
  endfacet
  facet normal 0.000000e+00 -6.123234e-17 -1.000000e+00
    outer loop
      vertex 8.749992e+00 -3.999992e+00 2.499994e+00
      vertex 5.348534e+00 -1.644463e+00 2.499994e+00
      vertex 5.625008e+00 -1.515541e+00 2.499994e+00
    endloop
  endfacet
  facet normal 0.000000e+00 -6.123234e-17 -1.000000e+00
    outer loop
      vertex 8.749992e+00 -3.999992e+00 2.499994e+00
      vertex 5.625008e+00 -1.515541e+00 2.499994e+00
      vertex 5.874870e+00 -1.340584e+00 2.499994e+00
    endloop
  endfacet
  facet normal 0.000000e+00 -6.123234e-17 -1.000000e+00
    outer loop
      vertex 5.874870e+00 -1.340584e+00 2.499994e+00
      vertex 6.090584e+00 -1.124870e+00 2.499994e+00
      vertex 8.749992e+00 -3.999992e+00 2.499994e+00
    endloop
  endfacet
  facet normal 0.000000e+00 -6.123234e-17 -1.000000e+00
    outer loop
      vertex 8.749992e+00 -3.999992e+00 2.499994e+00
      vertex 6.090584e+00 -1.124870e+00 2.499994e+00
      vertex 6.265556e+00 -8.749924e-01 2.499994e+00
    endloop
  endfacet
  facet normal 0.000000e+00 -6.123234e-17 -1.000000e+00
    outer loop
      vertex 8.749992e+00 -3.999992e+00 2.499994e+00
      vertex 6.265556e+00 -8.749924e-01 2.499994e+00
      vertex 6.394463e+00 -5.985336e-01 2.499994e+00
    endloop
  endfacet
  facet normal 0.000000e+00 -6.123234e-17 -1.000000e+00
    outer loop
      vertex 6.394463e+00 -5.985336e-01 2.499994e+00
      vertex 6.473427e+00 -3.038864e-01 2.499994e+00
      vertex 8.749992e+00 -3.999992e+00 2.499994e+00
    endloop
  endfacet
  facet normal 0.000000e+00 -6.123234e-17 -1.000000e+00
    outer loop
      vertex 8.749992e+00 -3.999992e+00 2.499994e+00
      vertex 6.473427e+00 -3.038864e-01 2.499994e+00
      vertex 6.500008e+00 -7.629395e-06 2.499994e+00
    endloop
  endfacet
  facet normal 0.000000e+00 -6.123234e-17 -1.000000e+00
    outer loop
      vertex 8.749992e+00 -3.999992e+00 2.499994e+00
      vertex 6.500008e+00 -7.629395e-06 2.499994e+00
      vertex 8.749992e+00 3.999992e+00 2.499994e+00
    endloop
  endfacet
  facet normal 0.000000e+00 -6.123234e-17 -1.000000e+00
    outer loop
      vertex 8.749992e+00 3.999992e+00 2.499994e+00
      vertex 6.500008e+00 -7.629395e-06 2.499994e+00
      vertex 6.473427e+00 3.038712e-01 2.499994e+00
    endloop
  endfacet
  facet normal 0.000000e+00 -6.123234e-17 -1.000000e+00
    outer loop
      vertex 8.749992e+00 3.999992e+00 2.499994e+00
      vertex 6.473427e+00 3.038712e-01 2.499994e+00
      vertex 6.394463e+00 5.985336e-01 2.499994e+00
    endloop
  endfacet
  facet normal 0.000000e+00 -6.123234e-17 -1.000000e+00
    outer loop
      vertex -4.151466e+00 1.644463e+00 2.499994e+00
      vertex -8.749992e+00 3.999992e+00 2.499994e+00
      vertex -3.875008e+00 1.515556e+00 2.499994e+00
    endloop
  endfacet
  facet normal 0.000000e+00 -6.123234e-17 -1.000000e+00
    outer loop
      vertex -3.875008e+00 1.515556e+00 2.499994e+00
      vertex -8.749992e+00 3.999992e+00 2.499994e+00
      vertex 3.625130e+00 -1.340584e+00 2.499994e+00
    endloop
  endfacet
  facet normal 0.000000e+00 -6.123234e-17 -1.000000e+00
    outer loop
      vertex -3.875008e+00 1.515556e+00 2.499994e+00
      vertex 3.625130e+00 -1.340584e+00 2.499994e+00
      vertex -3.625130e+00 1.340584e+00 2.499994e+00
    endloop
  endfacet
  facet normal 0.000000e+00 -6.123234e-17 -1.000000e+00
    outer loop
      vertex -3.625130e+00 1.340584e+00 2.499994e+00
      vertex 3.625130e+00 -1.340584e+00 2.499994e+00
      vertex 3.875008e+00 -1.515541e+00 2.499994e+00
    endloop
  endfacet
  facet normal 0.000000e+00 -6.123234e-17 -1.000000e+00
    outer loop
      vertex -3.625130e+00 1.340584e+00 2.499994e+00
      vertex 3.875008e+00 -1.515541e+00 2.499994e+00
      vertex 8.749992e+00 -3.999992e+00 2.499994e+00
    endloop
  endfacet
  facet normal 0.000000e+00 -6.123234e-17 -1.000000e+00
    outer loop
      vertex 8.749992e+00 -3.999992e+00 2.499994e+00
      vertex 3.875008e+00 -1.515541e+00 2.499994e+00
      vertex 4.151466e+00 -1.644463e+00 2.499994e+00
    endloop
  endfacet
  facet normal 0.000000e+00 -6.123234e-17 -1.000000e+00
    outer loop
      vertex 8.749992e+00 -3.999992e+00 2.499994e+00
      vertex 4.151466e+00 -1.644463e+00 2.499994e+00
      vertex 4.446114e+00 -1.723412e+00 2.499994e+00
    endloop
  endfacet
  facet normal 0.000000e+00 -6.123234e-17 -1.000000e+00
    outer loop
      vertex 6.394463e+00 5.985336e-01 2.499994e+00
      vertex 6.265556e+00 8.749924e-01 2.499994e+00
      vertex 8.749992e+00 3.999992e+00 2.499994e+00
    endloop
  endfacet
  facet normal 0.000000e+00 -6.123234e-17 -1.000000e+00
    outer loop
      vertex 8.749992e+00 3.999992e+00 2.499994e+00
      vertex 6.265556e+00 8.749924e-01 2.499994e+00
      vertex 6.090584e+00 1.124870e+00 2.499994e+00
    endloop
  endfacet
  facet normal 0.000000e+00 -6.123234e-17 -1.000000e+00
    outer loop
      vertex 8.749992e+00 3.999992e+00 2.499994e+00
      vertex 6.090584e+00 1.124870e+00 2.499994e+00
      vertex 5.874870e+00 1.340584e+00 2.499994e+00
    endloop
  endfacet
  facet normal 0.000000e+00 6.123234e-17 1.000000e+00
    outer loop
      vertex -5.874870e+00 -1.340584e+00 5.499990e+00
      vertex -6.090584e+00 -1.124870e+00 5.499990e+00
      vertex -8.749992e+00 -3.999992e+00 5.499990e+00
    endloop
  endfacet
  facet normal 0.000000e+00 6.123234e-17 1.000000e+00
    outer loop
      vertex -5.053871e+00 -1.723412e+00 5.499990e+00
      vertex -5.348534e+00 -1.644463e+00 5.499990e+00
      vertex -8.749992e+00 -3.999992e+00 5.499990e+00
    endloop
  endfacet
  facet normal 0.000000e+00 6.123234e-17 1.000000e+00
    outer loop
      vertex -8.749992e+00 -3.999992e+00 5.499990e+00
      vertex -5.348534e+00 -1.644463e+00 5.499990e+00
      vertex -5.625008e+00 -1.515541e+00 5.499990e+00
    endloop
  endfacet
  facet normal 0.000000e+00 6.123234e-17 1.000000e+00
    outer loop
      vertex -8.749992e+00 -3.999992e+00 5.499990e+00
      vertex -5.625008e+00 -1.515541e+00 5.499990e+00
      vertex -5.874870e+00 -1.340584e+00 5.499990e+00
    endloop
  endfacet
  facet normal 0.000000e+00 6.123234e-17 1.000000e+00
    outer loop
      vertex -8.749992e+00 3.999992e+00 5.499990e+00
      vertex -8.749992e+00 -3.999992e+00 5.499990e+00
      vertex -6.473427e+00 -3.038864e-01 5.499990e+00
    endloop
  endfacet
  facet normal 0.000000e+00 6.123234e-17 1.000000e+00
    outer loop
      vertex -6.090584e+00 -1.124870e+00 5.499990e+00
      vertex -6.265556e+00 -8.749924e-01 5.499990e+00
      vertex -8.749992e+00 -3.999992e+00 5.499990e+00
    endloop
  endfacet
  facet normal 0.000000e+00 6.123234e-17 1.000000e+00
    outer loop
      vertex -8.749992e+00 -3.999992e+00 5.499990e+00
      vertex -6.265556e+00 -8.749924e-01 5.499990e+00
      vertex -6.394463e+00 -5.985336e-01 5.499990e+00
    endloop
  endfacet
  facet normal 0.000000e+00 6.123234e-17 1.000000e+00
    outer loop
      vertex -8.749992e+00 -3.999992e+00 5.499990e+00
      vertex -6.394463e+00 -5.985336e-01 5.499990e+00
      vertex -6.473427e+00 -3.038864e-01 5.499990e+00
    endloop
  endfacet
  facet normal 0.000000e+00 6.123234e-17 1.000000e+00
    outer loop
      vertex -6.473427e+00 -3.038864e-01 5.499990e+00
      vertex -6.500008e+00 -7.629395e-06 5.499990e+00
      vertex -8.749992e+00 3.999992e+00 5.499990e+00
    endloop
  endfacet
  facet normal 0.000000e+00 6.123234e-17 1.000000e+00
    outer loop
      vertex -8.749992e+00 3.999992e+00 5.499990e+00
      vertex -6.500008e+00 -7.629395e-06 5.499990e+00
      vertex -6.473427e+00 3.038712e-01 5.499990e+00
    endloop
  endfacet
  facet normal 0.000000e+00 6.123234e-17 1.000000e+00
    outer loop
      vertex -8.749992e+00 3.999992e+00 5.499990e+00
      vertex -6.473427e+00 3.038712e-01 5.499990e+00
      vertex -6.394463e+00 5.985336e-01 5.499990e+00
    endloop
  endfacet
  facet normal 0.000000e+00 6.123234e-17 1.000000e+00
    outer loop
      vertex 8.749992e+00 -3.999992e+00 5.499990e+00
      vertex -3.625130e+00 -1.340584e+00 5.499990e+00
      vertex -3.875008e+00 -1.515541e+00 5.499990e+00
    endloop
  endfacet
  facet normal 0.000000e+00 6.123234e-17 1.000000e+00
    outer loop
      vertex -6.394463e+00 5.985336e-01 5.499990e+00
      vertex -6.265556e+00 8.749924e-01 5.499990e+00
      vertex -8.749992e+00 3.999992e+00 5.499990e+00
    endloop
  endfacet
  facet normal 0.000000e+00 6.123234e-17 1.000000e+00
    outer loop
      vertex -8.749992e+00 3.999992e+00 5.499990e+00
      vertex -6.265556e+00 8.749924e-01 5.499990e+00
      vertex -6.090584e+00 1.124870e+00 5.499990e+00
    endloop
  endfacet
  facet normal 0.000000e+00 6.123234e-17 1.000000e+00
    outer loop
      vertex -8.749992e+00 3.999992e+00 5.499990e+00
      vertex -6.090584e+00 1.124870e+00 5.499990e+00
      vertex -5.874870e+00 1.340584e+00 5.499990e+00
    endloop
  endfacet
  facet normal 0.000000e+00 6.123234e-17 1.000000e+00
    outer loop
      vertex 3.409416e+00 1.124870e+00 5.499990e+00
      vertex 3.625130e+00 1.340584e+00 5.499990e+00
      vertex -8.749992e+00 3.999992e+00 5.499990e+00
    endloop
  endfacet
  facet normal 0.000000e+00 6.123234e-17 1.000000e+00
    outer loop
      vertex -8.749992e+00 3.999992e+00 5.499990e+00
      vertex 3.625130e+00 1.340584e+00 5.499990e+00
      vertex 3.875008e+00 1.515556e+00 5.499990e+00
    endloop
  endfacet
  facet normal 0.000000e+00 6.123234e-17 1.000000e+00
    outer loop
      vertex -5.874870e+00 1.340584e+00 5.499990e+00
      vertex -5.625008e+00 1.515556e+00 5.499990e+00
      vertex -8.749992e+00 3.999992e+00 5.499990e+00
    endloop
  endfacet
  facet normal 0.000000e+00 6.123234e-17 1.000000e+00
    outer loop
      vertex -8.749992e+00 3.999992e+00 5.499990e+00
      vertex -5.625008e+00 1.515556e+00 5.499990e+00
      vertex -5.348534e+00 1.644463e+00 5.499990e+00
    endloop
  endfacet
  facet normal 0.000000e+00 6.123234e-17 1.000000e+00
    outer loop
      vertex -8.749992e+00 3.999992e+00 5.499990e+00
      vertex -5.348534e+00 1.644463e+00 5.499990e+00
      vertex -5.053871e+00 1.723412e+00 5.499990e+00
    endloop
  endfacet
  facet normal 0.000000e+00 6.123234e-17 1.000000e+00
    outer loop
      vertex -3.875008e+00 -1.515541e+00 5.499990e+00
      vertex -4.151466e+00 -1.644463e+00 5.499990e+00
      vertex 8.749992e+00 -3.999992e+00 5.499990e+00
    endloop
  endfacet
  facet normal 0.000000e+00 6.123234e-17 1.000000e+00
    outer loop
      vertex 8.749992e+00 -3.999992e+00 5.499990e+00
      vertex -4.151466e+00 -1.644463e+00 5.499990e+00
      vertex -4.446114e+00 -1.723412e+00 5.499990e+00
    endloop
  endfacet
  facet normal 0.000000e+00 6.123234e-17 1.000000e+00
    outer loop
      vertex 8.749992e+00 -3.999992e+00 5.499990e+00
      vertex -4.446114e+00 -1.723412e+00 5.499990e+00
      vertex -8.749992e+00 -3.999992e+00 5.499990e+00
    endloop
  endfacet
  facet normal 0.000000e+00 6.123234e-17 1.000000e+00
    outer loop
      vertex -8.749992e+00 -3.999992e+00 5.499990e+00
      vertex -4.446114e+00 -1.723412e+00 5.499990e+00
      vertex -4.749992e+00 -1.750008e+00 5.499990e+00
    endloop
  endfacet
  facet normal 0.000000e+00 6.123234e-17 1.000000e+00
    outer loop
      vertex -8.749992e+00 -3.999992e+00 5.499990e+00
      vertex -4.749992e+00 -1.750008e+00 5.499990e+00
      vertex -5.053871e+00 -1.723412e+00 5.499990e+00
    endloop
  endfacet
  facet normal 0.000000e+00 6.123234e-17 1.000000e+00
    outer loop
      vertex 3.875008e+00 1.515556e+00 5.499990e+00
      vertex 4.151466e+00 1.644463e+00 5.499990e+00
      vertex -8.749992e+00 3.999992e+00 5.499990e+00
    endloop
  endfacet
  facet normal 0.000000e+00 6.123234e-17 1.000000e+00
    outer loop
      vertex -8.749992e+00 3.999992e+00 5.499990e+00
      vertex 4.151466e+00 1.644463e+00 5.499990e+00
      vertex 4.446114e+00 1.723412e+00 5.499990e+00
    endloop
  endfacet
  facet normal 0.000000e+00 6.123234e-17 1.000000e+00
    outer loop
      vertex -8.749992e+00 3.999992e+00 5.499990e+00
      vertex 4.446114e+00 1.723412e+00 5.499990e+00
      vertex 8.749992e+00 3.999992e+00 5.499990e+00
    endloop
  endfacet
  facet normal 0.000000e+00 6.123234e-17 1.000000e+00
    outer loop
      vertex 8.749992e+00 3.999992e+00 5.499990e+00
      vertex 4.446114e+00 1.723412e+00 5.499990e+00
      vertex 4.750008e+00 1.750008e+00 5.499990e+00
    endloop
  endfacet
  facet normal 0.000000e+00 6.123234e-17 1.000000e+00
    outer loop
      vertex 8.749992e+00 3.999992e+00 5.499990e+00
      vertex 4.750008e+00 1.750008e+00 5.499990e+00
      vertex 5.053886e+00 1.723412e+00 5.499990e+00
    endloop
  endfacet
  facet normal 0.000000e+00 6.123234e-17 1.000000e+00
    outer loop
      vertex 5.053886e+00 1.723412e+00 5.499990e+00
      vertex 5.348534e+00 1.644463e+00 5.499990e+00
      vertex 8.749992e+00 3.999992e+00 5.499990e+00
    endloop
  endfacet
  facet normal 0.000000e+00 6.123234e-17 1.000000e+00
    outer loop
      vertex 8.749992e+00 3.999992e+00 5.499990e+00
      vertex 5.348534e+00 1.644463e+00 5.499990e+00
      vertex 5.625008e+00 1.515556e+00 5.499990e+00
    endloop
  endfacet
  facet normal 0.000000e+00 6.123234e-17 1.000000e+00
    outer loop
      vertex 8.749992e+00 3.999992e+00 5.499990e+00
      vertex 5.625008e+00 1.515556e+00 5.499990e+00
      vertex 5.874870e+00 1.340584e+00 5.499990e+00
    endloop
  endfacet
  facet normal 0.000000e+00 6.123234e-17 1.000000e+00
    outer loop
      vertex 5.874870e+00 -1.340584e+00 5.499990e+00
      vertex 5.625008e+00 -1.515541e+00 5.499990e+00
      vertex 8.749992e+00 -3.999992e+00 5.499990e+00
    endloop
  endfacet
  facet normal 0.000000e+00 6.123234e-17 1.000000e+00
    outer loop
      vertex 8.749992e+00 -3.999992e+00 5.499990e+00
      vertex 5.625008e+00 -1.515541e+00 5.499990e+00
      vertex 5.348534e+00 -1.644463e+00 5.499990e+00
    endloop
  endfacet
  facet normal 0.000000e+00 6.123234e-17 1.000000e+00
    outer loop
      vertex 8.749992e+00 -3.999992e+00 5.499990e+00
      vertex 5.348534e+00 -1.644463e+00 5.499990e+00
      vertex 5.053886e+00 -1.723412e+00 5.499990e+00
    endloop
  endfacet
  facet normal 0.000000e+00 6.123234e-17 1.000000e+00
    outer loop
      vertex -5.053871e+00 1.723412e+00 5.499990e+00
      vertex -4.749992e+00 1.750008e+00 5.499990e+00
      vertex -8.749992e+00 3.999992e+00 5.499990e+00
    endloop
  endfacet
  facet normal 0.000000e+00 6.123234e-17 1.000000e+00
    outer loop
      vertex -8.749992e+00 3.999992e+00 5.499990e+00
      vertex -4.749992e+00 1.750008e+00 5.499990e+00
      vertex -4.446114e+00 1.723412e+00 5.499990e+00
    endloop
  endfacet
  facet normal 0.000000e+00 6.123234e-17 1.000000e+00
    outer loop
      vertex -8.749992e+00 3.999992e+00 5.499990e+00
      vertex -4.446114e+00 1.723412e+00 5.499990e+00
      vertex 3.409416e+00 1.124870e+00 5.499990e+00
    endloop
  endfacet
  facet normal 0.000000e+00 6.123234e-17 1.000000e+00
    outer loop
      vertex 3.409416e+00 1.124870e+00 5.499990e+00
      vertex -4.446114e+00 1.723412e+00 5.499990e+00
      vertex -4.151466e+00 1.644463e+00 5.499990e+00
    endloop
  endfacet
  facet normal 0.000000e+00 6.123234e-17 1.000000e+00
    outer loop
      vertex 3.409416e+00 1.124870e+00 5.499990e+00
      vertex -4.151466e+00 1.644463e+00 5.499990e+00
      vertex -3.875008e+00 1.515556e+00 5.499990e+00
    endloop
  endfacet
  facet normal 0.000000e+00 6.123234e-17 1.000000e+00
    outer loop
      vertex 5.874870e+00 1.340584e+00 5.499990e+00
      vertex 6.090584e+00 1.124870e+00 5.499990e+00
      vertex 8.749992e+00 3.999992e+00 5.499990e+00
    endloop
  endfacet
  facet normal 0.000000e+00 6.123234e-17 1.000000e+00
    outer loop
      vertex 8.749992e+00 3.999992e+00 5.499990e+00
      vertex 6.090584e+00 1.124870e+00 5.499990e+00
      vertex 6.265556e+00 8.749924e-01 5.499990e+00
    endloop
  endfacet
  facet normal 0.000000e+00 6.123234e-17 1.000000e+00
    outer loop
      vertex 8.749992e+00 3.999992e+00 5.499990e+00
      vertex 6.265556e+00 8.749924e-01 5.499990e+00
      vertex 6.394463e+00 5.985336e-01 5.499990e+00
    endloop
  endfacet
  facet normal 0.000000e+00 6.123234e-17 1.000000e+00
    outer loop
      vertex 6.394463e+00 5.985336e-01 5.499990e+00
      vertex 6.473427e+00 3.038712e-01 5.499990e+00
      vertex 8.749992e+00 3.999992e+00 5.499990e+00
    endloop
  endfacet
  facet normal 0.000000e+00 6.123234e-17 1.000000e+00
    outer loop
      vertex 8.749992e+00 3.999992e+00 5.499990e+00
      vertex 6.473427e+00 3.038712e-01 5.499990e+00
      vertex 6.500008e+00 -7.629395e-06 5.499990e+00
    endloop
  endfacet
  facet normal 0.000000e+00 6.123234e-17 1.000000e+00
    outer loop
      vertex 8.749992e+00 3.999992e+00 5.499990e+00
      vertex 6.500008e+00 -7.629395e-06 5.499990e+00
      vertex 8.749992e+00 -3.999992e+00 5.499990e+00
    endloop
  endfacet
  facet normal 0.000000e+00 6.123234e-17 1.000000e+00
    outer loop
      vertex 8.749992e+00 -3.999992e+00 5.499990e+00
      vertex 6.500008e+00 -7.629395e-06 5.499990e+00
      vertex 6.473427e+00 -3.038864e-01 5.499990e+00
    endloop
  endfacet
  facet normal 0.000000e+00 6.123234e-17 1.000000e+00
    outer loop
      vertex 8.749992e+00 -3.999992e+00 5.499990e+00
      vertex 6.473427e+00 -3.038864e-01 5.499990e+00
      vertex 6.394463e+00 -5.985336e-01 5.499990e+00
    endloop
  endfacet
  facet normal 0.000000e+00 6.123234e-17 1.000000e+00
    outer loop
      vertex 5.053886e+00 -1.723412e+00 5.499990e+00
      vertex 4.750008e+00 -1.750008e+00 5.499990e+00
      vertex 8.749992e+00 -3.999992e+00 5.499990e+00
    endloop
  endfacet
  facet normal 0.000000e+00 6.123234e-17 1.000000e+00
    outer loop
      vertex 8.749992e+00 -3.999992e+00 5.499990e+00
      vertex 4.750008e+00 -1.750008e+00 5.499990e+00
      vertex 4.446114e+00 -1.723412e+00 5.499990e+00
    endloop
  endfacet
  facet normal 0.000000e+00 6.123234e-17 1.000000e+00
    outer loop
      vertex 8.749992e+00 -3.999992e+00 5.499990e+00
      vertex 4.446114e+00 -1.723412e+00 5.499990e+00
      vertex -3.625130e+00 -1.340584e+00 5.499990e+00
    endloop
  endfacet
  facet normal 0.000000e+00 6.123234e-17 1.000000e+00
    outer loop
      vertex -3.625130e+00 -1.340584e+00 5.499990e+00
      vertex 4.446114e+00 -1.723412e+00 5.499990e+00
      vertex 4.151466e+00 -1.644463e+00 5.499990e+00
    endloop
  endfacet
  facet normal 0.000000e+00 6.123234e-17 1.000000e+00
    outer loop
      vertex -3.875008e+00 1.515556e+00 5.499990e+00
      vertex -3.625130e+00 1.340584e+00 5.499990e+00
      vertex 3.409416e+00 1.124870e+00 5.499990e+00
    endloop
  endfacet
  facet normal 0.000000e+00 6.123234e-17 1.000000e+00
    outer loop
      vertex 3.409416e+00 1.124870e+00 5.499990e+00
      vertex -3.625130e+00 1.340584e+00 5.499990e+00
      vertex -3.409416e+00 1.124870e+00 5.499990e+00
    endloop
  endfacet
  facet normal 0.000000e+00 6.123234e-17 1.000000e+00
    outer loop
      vertex 3.409416e+00 1.124870e+00 5.499990e+00
      vertex -3.409416e+00 1.124870e+00 5.499990e+00
      vertex -3.234444e+00 8.749924e-01 5.499990e+00
    endloop
  endfacet
  facet normal 0.000000e+00 6.123234e-17 1.000000e+00
    outer loop
      vertex 3.625130e+00 -1.340584e+00 5.499990e+00
      vertex -3.105537e+00 -5.985336e-01 5.499990e+00
      vertex -3.234444e+00 -8.749924e-01 5.499990e+00
    endloop
  endfacet
  facet normal 0.000000e+00 6.123234e-17 1.000000e+00
    outer loop
      vertex 6.394463e+00 -5.985336e-01 5.499990e+00
      vertex 6.265556e+00 -8.749924e-01 5.499990e+00
      vertex 8.749992e+00 -3.999992e+00 5.499990e+00
    endloop
  endfacet
  facet normal 0.000000e+00 6.123234e-17 1.000000e+00
    outer loop
      vertex 8.749992e+00 -3.999992e+00 5.499990e+00
      vertex 6.265556e+00 -8.749924e-01 5.499990e+00
      vertex 6.090584e+00 -1.124870e+00 5.499990e+00
    endloop
  endfacet
  facet normal 0.000000e+00 6.123234e-17 1.000000e+00
    outer loop
      vertex 8.749992e+00 -3.999992e+00 5.499990e+00
      vertex 6.090584e+00 -1.124870e+00 5.499990e+00
      vertex 5.874870e+00 -1.340584e+00 5.499990e+00
    endloop
  endfacet
  facet normal 0.000000e+00 6.123234e-17 1.000000e+00
    outer loop
      vertex -3.234444e+00 8.749924e-01 5.499990e+00
      vertex -3.105537e+00 5.985336e-01 5.499990e+00
      vertex 3.409416e+00 1.124870e+00 5.499990e+00
    endloop
  endfacet
  facet normal 0.000000e+00 6.123234e-17 1.000000e+00
    outer loop
      vertex 3.409416e+00 1.124870e+00 5.499990e+00
      vertex -3.105537e+00 5.985336e-01 5.499990e+00
      vertex -3.026588e+00 3.038712e-01 5.499990e+00
    endloop
  endfacet
  facet normal 0.000000e+00 6.123234e-17 1.000000e+00
    outer loop
      vertex 3.409416e+00 1.124870e+00 5.499990e+00
      vertex -3.026588e+00 3.038712e-01 5.499990e+00
      vertex 3.234444e+00 8.749924e-01 5.499990e+00
    endloop
  endfacet
  facet normal 0.000000e+00 6.123234e-17 1.000000e+00
    outer loop
      vertex 3.234444e+00 8.749924e-01 5.499990e+00
      vertex -3.026588e+00 3.038712e-01 5.499990e+00
      vertex 3.105537e+00 5.985336e-01 5.499990e+00
    endloop
  endfacet
  facet normal 0.000000e+00 6.123234e-17 1.000000e+00
    outer loop
      vertex 4.151466e+00 -1.644463e+00 5.499990e+00
      vertex 3.875008e+00 -1.515541e+00 5.499990e+00
      vertex -3.625130e+00 -1.340584e+00 5.499990e+00
    endloop
  endfacet
  facet normal 0.000000e+00 6.123234e-17 1.000000e+00
    outer loop
      vertex -3.625130e+00 -1.340584e+00 5.499990e+00
      vertex 3.875008e+00 -1.515541e+00 5.499990e+00
      vertex 3.625130e+00 -1.340584e+00 5.499990e+00
    endloop
  endfacet
  facet normal 0.000000e+00 6.123234e-17 1.000000e+00
    outer loop
      vertex -3.625130e+00 -1.340584e+00 5.499990e+00
      vertex 3.625130e+00 -1.340584e+00 5.499990e+00
      vertex -3.409416e+00 -1.124870e+00 5.499990e+00
    endloop
  endfacet
  facet normal 0.000000e+00 6.123234e-17 1.000000e+00
    outer loop
      vertex -3.409416e+00 -1.124870e+00 5.499990e+00
      vertex 3.625130e+00 -1.340584e+00 5.499990e+00
      vertex -3.234444e+00 -8.749924e-01 5.499990e+00
    endloop
  endfacet
  facet normal 0.000000e+00 6.123234e-17 1.000000e+00
    outer loop
      vertex 3.234444e+00 -8.749924e-01 5.499990e+00
      vertex 3.105537e+00 -5.985336e-01 5.499990e+00
      vertex -3.026588e+00 -3.038864e-01 5.499990e+00
    endloop
  endfacet
  facet normal 0.000000e+00 6.123234e-17 1.000000e+00
    outer loop
      vertex -3.026588e+00 -3.038864e-01 5.499990e+00
      vertex 3.105537e+00 -5.985336e-01 5.499990e+00
      vertex 3.026573e+00 -3.038864e-01 5.499990e+00
    endloop
  endfacet
  facet normal 0.000000e+00 6.123234e-17 1.000000e+00
    outer loop
      vertex -3.026588e+00 -3.038864e-01 5.499990e+00
      vertex 3.026573e+00 -3.038864e-01 5.499990e+00
      vertex -2.999992e+00 -7.629395e-06 5.499990e+00
    endloop
  endfacet
  facet normal 0.000000e+00 6.123234e-17 1.000000e+00
    outer loop
      vertex -2.999992e+00 -7.629395e-06 5.499990e+00
      vertex 3.026573e+00 -3.038864e-01 5.499990e+00
      vertex 2.999992e+00 -7.629395e-06 5.499990e+00
    endloop
  endfacet
  facet normal 0.000000e+00 6.123234e-17 1.000000e+00
    outer loop
      vertex -2.999992e+00 -7.629395e-06 5.499990e+00
      vertex 2.999992e+00 -7.629395e-06 5.499990e+00
      vertex -3.026588e+00 3.038712e-01 5.499990e+00
    endloop
  endfacet
  facet normal 0.000000e+00 6.123234e-17 1.000000e+00
    outer loop
      vertex -3.026588e+00 3.038712e-01 5.499990e+00
      vertex 2.999992e+00 -7.629395e-06 5.499990e+00
      vertex 3.026573e+00 3.038712e-01 5.499990e+00
    endloop
  endfacet
  facet normal 0.000000e+00 6.123234e-17 1.000000e+00
    outer loop
      vertex -3.026588e+00 3.038712e-01 5.499990e+00
      vertex 3.026573e+00 3.038712e-01 5.499990e+00
      vertex 3.105537e+00 5.985336e-01 5.499990e+00
    endloop
  endfacet
  facet normal 0.000000e+00 6.123234e-17 1.000000e+00
    outer loop
      vertex -3.105537e+00 -5.985336e-01 5.499990e+00
      vertex 3.625130e+00 -1.340584e+00 5.499990e+00
      vertex -3.026588e+00 -3.038864e-01 5.499990e+00
    endloop
  endfacet
  facet normal 0.000000e+00 6.123234e-17 1.000000e+00
    outer loop
      vertex -3.026588e+00 -3.038864e-01 5.499990e+00
      vertex 3.625130e+00 -1.340584e+00 5.499990e+00
      vertex 3.409416e+00 -1.124870e+00 5.499990e+00
    endloop
  endfacet
  facet normal 0.000000e+00 6.123234e-17 1.000000e+00
    outer loop
      vertex -3.026588e+00 -3.038864e-01 5.499990e+00
      vertex 3.409416e+00 -1.124870e+00 5.499990e+00
      vertex 3.234444e+00 -8.749924e-01 5.499990e+00
    endloop
  endfacet
  facet normal 5.807913e-02 -9.983119e-01 6.112898e-17
    outer loop
      vertex 4.446114e+00 1.723412e+00 5.499990e+00
      vertex 4.750008e+00 1.750008e+00 2.499994e+00
      vertex 4.750008e+00 1.750008e+00 5.499990e+00
    endloop
  endfacet
  facet normal -5.807913e-02 -9.983119e-01 6.112898e-17
    outer loop
      vertex 4.750008e+00 1.750008e+00 5.499990e+00
      vertex 4.750008e+00 1.750008e+00 2.499994e+00
      vertex 5.053886e+00 1.723412e+00 2.499994e+00
    endloop
  endfacet
  facet normal -1.161583e-01 -9.932307e-01 6.081784e-17
    outer loop
      vertex 4.750008e+00 1.750008e+00 5.499990e+00
      vertex 5.053886e+00 1.723412e+00 2.499994e+00
      vertex 5.053886e+00 1.723412e+00 5.499990e+00
    endloop
  endfacet
  facet normal -2.305519e-01 -9.730600e-01 5.958274e-17
    outer loop
      vertex 5.053886e+00 1.723412e+00 5.499990e+00
      vertex 5.053886e+00 1.723412e+00 2.499994e+00
      vertex 5.348534e+00 1.644463e+00 2.499994e+00
    endloop
  endfacet
  facet normal -2.868663e-01 -9.579706e-01 5.865879e-17
    outer loop
      vertex 5.053886e+00 1.723412e+00 5.499990e+00
      vertex 5.348534e+00 1.644463e+00 2.499994e+00
      vertex 5.348534e+00 1.644463e+00 5.499990e+00
    endloop
  endfacet
  facet normal -3.960194e-01 -9.182422e-01 5.622611e-17
    outer loop
      vertex 5.348534e+00 1.644463e+00 5.499990e+00
      vertex 5.348534e+00 1.644463e+00 2.499994e+00
      vertex 5.625008e+00 1.515556e+00 2.499994e+00
    endloop
  endfacet
  facet normal -4.488580e-01 -8.936031e-01 5.471741e-17
    outer loop
      vertex 5.348534e+00 1.644463e+00 5.499990e+00
      vertex 5.625008e+00 1.515556e+00 2.499994e+00
      vertex 5.625008e+00 1.515556e+00 5.499990e+00
    endloop
  endfacet
  facet normal -5.494540e-01 -8.355240e-01 5.116109e-17
    outer loop
      vertex 5.625008e+00 1.515556e+00 5.499990e+00
      vertex 5.625008e+00 1.515556e+00 2.499994e+00
      vertex 5.874870e+00 1.340584e+00 2.499994e+00
    endloop
  endfacet
  facet normal -5.972114e-01 -8.020840e-01 4.911348e-17
    outer loop
      vertex 5.625008e+00 1.515556e+00 5.499990e+00
      vertex 5.874870e+00 1.340584e+00 2.499994e+00
      vertex 5.874870e+00 1.340584e+00 5.499990e+00
    endloop
  endfacet
  facet normal -6.861938e-01 -7.274188e-01 4.454156e-17
    outer loop
      vertex 5.874870e+00 1.340584e+00 5.499990e+00
      vertex 5.874870e+00 1.340584e+00 2.499994e+00
      vertex 6.090584e+00 1.124870e+00 2.499994e+00
    endloop
  endfacet
  facet normal -7.274188e-01 -6.861938e-01 4.201725e-17
    outer loop
      vertex 5.874870e+00 1.340584e+00 5.499990e+00
      vertex 6.090584e+00 1.124870e+00 2.499994e+00
      vertex 6.090584e+00 1.124870e+00 5.499990e+00
    endloop
  endfacet
  facet normal -8.020840e-01 -5.972114e-01 3.656865e-17
    outer loop
      vertex 6.090584e+00 1.124870e+00 5.499990e+00
      vertex 6.090584e+00 1.124870e+00 2.499994e+00
      vertex 6.265556e+00 8.749924e-01 2.499994e+00
    endloop
  endfacet
  facet normal -8.355240e-01 -5.494540e-01 3.364436e-17
    outer loop
      vertex 6.090584e+00 1.124870e+00 5.499990e+00
      vertex 6.265556e+00 8.749924e-01 2.499994e+00
      vertex 6.265556e+00 8.749924e-01 5.499990e+00
    endloop
  endfacet
  facet normal -8.936031e-01 -4.488580e-01 2.748463e-17
    outer loop
      vertex 6.265556e+00 8.749924e-01 5.499990e+00
      vertex 6.265556e+00 8.749924e-01 2.499994e+00
      vertex 6.394463e+00 5.985336e-01 2.499994e+00
    endloop
  endfacet
  facet normal -9.182422e-01 -3.960194e-01 2.424920e-17
    outer loop
      vertex 6.265556e+00 8.749924e-01 5.499990e+00
      vertex 6.394463e+00 5.985336e-01 2.499994e+00
      vertex 6.394463e+00 5.985336e-01 5.499990e+00
    endloop
  endfacet
  facet normal -9.579706e-01 -2.868663e-01 1.756549e-17
    outer loop
      vertex 6.394463e+00 5.985336e-01 5.499990e+00
      vertex 6.394463e+00 5.985336e-01 2.499994e+00
      vertex 6.473427e+00 3.038712e-01 2.499994e+00
    endloop
  endfacet
  facet normal -9.730600e-01 -2.305519e-01 1.411723e-17
    outer loop
      vertex 6.394463e+00 5.985336e-01 5.499990e+00
      vertex 6.473427e+00 3.038712e-01 2.499994e+00
      vertex 6.473427e+00 3.038712e-01 5.499990e+00
    endloop
  endfacet
  facet normal -9.932307e-01 -1.161583e-01 7.112643e-18
    outer loop
      vertex 6.473427e+00 3.038712e-01 5.499990e+00
      vertex 6.473427e+00 3.038712e-01 2.499994e+00
      vertex 6.500008e+00 -7.629395e-06 2.499994e+00
    endloop
  endfacet
  facet normal -9.983119e-01 -5.807913e-02 3.556321e-18
    outer loop
      vertex 6.473427e+00 3.038712e-01 5.499990e+00
      vertex 6.500008e+00 -7.629395e-06 2.499994e+00
      vertex 6.500008e+00 -7.629395e-06 5.499990e+00
    endloop
  endfacet
  facet normal -9.983119e-01 5.807913e-02 -3.556321e-18
    outer loop
      vertex 6.500008e+00 -7.629395e-06 5.499990e+00
      vertex 6.500008e+00 -7.629395e-06 2.499994e+00
      vertex 6.473427e+00 -3.038864e-01 2.499994e+00
    endloop
  endfacet
  facet normal -9.932307e-01 1.161583e-01 -7.112643e-18
    outer loop
      vertex 6.500008e+00 -7.629395e-06 5.499990e+00
      vertex 6.473427e+00 -3.038864e-01 2.499994e+00
      vertex 6.473427e+00 -3.038864e-01 5.499990e+00
    endloop
  endfacet
  facet normal -9.730600e-01 2.305519e-01 -1.411723e-17
    outer loop
      vertex 6.473427e+00 -3.038864e-01 5.499990e+00
      vertex 6.473427e+00 -3.038864e-01 2.499994e+00
      vertex 6.394463e+00 -5.985336e-01 2.499994e+00
    endloop
  endfacet
  facet normal -9.579706e-01 2.868663e-01 -1.756549e-17
    outer loop
      vertex 6.473427e+00 -3.038864e-01 5.499990e+00
      vertex 6.394463e+00 -5.985336e-01 2.499994e+00
      vertex 6.394463e+00 -5.985336e-01 5.499990e+00
    endloop
  endfacet
  facet normal -9.182422e-01 3.960194e-01 -2.424919e-17
    outer loop
      vertex 6.394463e+00 -5.985336e-01 5.499990e+00
      vertex 6.394463e+00 -5.985336e-01 2.499994e+00
      vertex 6.265556e+00 -8.749924e-01 2.499994e+00
    endloop
  endfacet
  facet normal -8.936031e-01 4.488580e-01 -2.748463e-17
    outer loop
      vertex 6.394463e+00 -5.985336e-01 5.499990e+00
      vertex 6.265556e+00 -8.749924e-01 2.499994e+00
      vertex 6.265556e+00 -8.749924e-01 5.499990e+00
    endloop
  endfacet
  facet normal -8.355240e-01 5.494540e-01 -3.364436e-17
    outer loop
      vertex 6.265556e+00 -8.749924e-01 5.499990e+00
      vertex 6.265556e+00 -8.749924e-01 2.499994e+00
      vertex 6.090584e+00 -1.124870e+00 2.499994e+00
    endloop
  endfacet
  facet normal -8.020840e-01 5.972114e-01 -3.656865e-17
    outer loop
      vertex 6.265556e+00 -8.749924e-01 5.499990e+00
      vertex 6.090584e+00 -1.124870e+00 2.499994e+00
      vertex 6.090584e+00 -1.124870e+00 5.499990e+00
    endloop
  endfacet
  facet normal -7.274188e-01 6.861938e-01 -4.201725e-17
    outer loop
      vertex 6.090584e+00 -1.124870e+00 5.499990e+00
      vertex 6.090584e+00 -1.124870e+00 2.499994e+00
      vertex 5.874870e+00 -1.340584e+00 2.499994e+00
    endloop
  endfacet
  facet normal -6.861938e-01 7.274188e-01 -4.454156e-17
    outer loop
      vertex 6.090584e+00 -1.124870e+00 5.499990e+00
      vertex 5.874870e+00 -1.340584e+00 2.499994e+00
      vertex 5.874870e+00 -1.340584e+00 5.499990e+00
    endloop
  endfacet
  facet normal -5.972114e-01 8.020840e-01 -4.911348e-17
    outer loop
      vertex 5.874870e+00 -1.340584e+00 5.499990e+00
      vertex 5.874870e+00 -1.340584e+00 2.499994e+00
      vertex 5.625008e+00 -1.515541e+00 2.499994e+00
    endloop
  endfacet
  facet normal -5.494540e-01 8.355240e-01 -5.116109e-17
    outer loop
      vertex 5.874870e+00 -1.340584e+00 5.499990e+00
      vertex 5.625008e+00 -1.515541e+00 2.499994e+00
      vertex 5.625008e+00 -1.515541e+00 5.499990e+00
    endloop
  endfacet
  facet normal -4.488580e-01 8.936031e-01 -5.471741e-17
    outer loop
      vertex 5.625008e+00 -1.515541e+00 5.499990e+00
      vertex 5.625008e+00 -1.515541e+00 2.499994e+00
      vertex 5.348534e+00 -1.644463e+00 2.499994e+00
    endloop
  endfacet
  facet normal -3.960194e-01 9.182422e-01 -5.622611e-17
    outer loop
      vertex 5.625008e+00 -1.515541e+00 5.499990e+00
      vertex 5.348534e+00 -1.644463e+00 2.499994e+00
      vertex 5.348534e+00 -1.644463e+00 5.499990e+00
    endloop
  endfacet
  facet normal -2.868663e-01 9.579706e-01 -5.865879e-17
    outer loop
      vertex 5.348534e+00 -1.644463e+00 5.499990e+00
      vertex 5.348534e+00 -1.644463e+00 2.499994e+00
      vertex 5.053886e+00 -1.723412e+00 2.499994e+00
    endloop
  endfacet
  facet normal -2.305519e-01 9.730600e-01 -5.958274e-17
    outer loop
      vertex 5.348534e+00 -1.644463e+00 5.499990e+00
      vertex 5.053886e+00 -1.723412e+00 2.499994e+00
      vertex 5.053886e+00 -1.723412e+00 5.499990e+00
    endloop
  endfacet
  facet normal -1.161583e-01 9.932307e-01 -6.081784e-17
    outer loop
      vertex 5.053886e+00 -1.723412e+00 5.499990e+00
      vertex 5.053886e+00 -1.723412e+00 2.499994e+00
      vertex 4.750008e+00 -1.750008e+00 2.499994e+00
    endloop
  endfacet
  facet normal -5.807913e-02 9.983119e-01 -6.112898e-17
    outer loop
      vertex 5.053886e+00 -1.723412e+00 5.499990e+00
      vertex 4.750008e+00 -1.750008e+00 2.499994e+00
      vertex 4.750008e+00 -1.750008e+00 5.499990e+00
    endloop
  endfacet
  facet normal 5.807913e-02 9.983119e-01 -6.112898e-17
    outer loop
      vertex 4.750008e+00 -1.750008e+00 5.499990e+00
      vertex 4.750008e+00 -1.750008e+00 2.499994e+00
      vertex 4.446114e+00 -1.723412e+00 2.499994e+00
    endloop
  endfacet
  facet normal 1.161583e-01 9.932307e-01 -6.081784e-17
    outer loop
      vertex 4.750008e+00 -1.750008e+00 5.499990e+00
      vertex 4.446114e+00 -1.723412e+00 2.499994e+00
      vertex 4.446114e+00 -1.723412e+00 5.499990e+00
    endloop
  endfacet
  facet normal 2.305519e-01 9.730600e-01 -5.958274e-17
    outer loop
      vertex 4.446114e+00 -1.723412e+00 5.499990e+00
      vertex 4.446114e+00 -1.723412e+00 2.499994e+00
      vertex 4.151466e+00 -1.644463e+00 2.499994e+00
    endloop
  endfacet
  facet normal 2.868663e-01 9.579706e-01 -5.865879e-17
    outer loop
      vertex 4.446114e+00 -1.723412e+00 5.499990e+00
      vertex 4.151466e+00 -1.644463e+00 2.499994e+00
      vertex 4.151466e+00 -1.644463e+00 5.499990e+00
    endloop
  endfacet
  facet normal 3.960194e-01 9.182422e-01 -5.622611e-17
    outer loop
      vertex 4.151466e+00 -1.644463e+00 5.499990e+00
      vertex 4.151466e+00 -1.644463e+00 2.499994e+00
      vertex 3.875008e+00 -1.515541e+00 2.499994e+00
    endloop
  endfacet
  facet normal 4.488580e-01 8.936031e-01 -5.471741e-17
    outer loop
      vertex 4.151466e+00 -1.644463e+00 5.499990e+00
      vertex 3.875008e+00 -1.515541e+00 2.499994e+00
      vertex 3.875008e+00 -1.515541e+00 5.499990e+00
    endloop
  endfacet
  facet normal 5.494540e-01 8.355240e-01 -5.116109e-17
    outer loop
      vertex 3.875008e+00 -1.515541e+00 5.499990e+00
      vertex 3.875008e+00 -1.515541e+00 2.499994e+00
      vertex 3.625130e+00 -1.340584e+00 2.499994e+00
    endloop
  endfacet
  facet normal 5.972114e-01 8.020840e-01 -4.911348e-17
    outer loop
      vertex 3.875008e+00 -1.515541e+00 5.499990e+00
      vertex 3.625130e+00 -1.340584e+00 2.499994e+00
      vertex 3.625130e+00 -1.340584e+00 5.499990e+00
    endloop
  endfacet
  facet normal 6.861938e-01 7.274188e-01 -4.454156e-17
    outer loop
      vertex 3.625130e+00 -1.340584e+00 5.499990e+00
      vertex 3.625130e+00 -1.340584e+00 2.499994e+00
      vertex 3.409416e+00 -1.124870e+00 2.499994e+00
    endloop
  endfacet
  facet normal 7.274188e-01 6.861938e-01 -4.201725e-17
    outer loop
      vertex 3.625130e+00 -1.340584e+00 5.499990e+00
      vertex 3.409416e+00 -1.124870e+00 2.499994e+00
      vertex 3.409416e+00 -1.124870e+00 5.499990e+00
    endloop
  endfacet
  facet normal 8.020840e-01 5.972114e-01 -3.656865e-17
    outer loop
      vertex 3.409416e+00 -1.124870e+00 5.499990e+00
      vertex 3.409416e+00 -1.124870e+00 2.499994e+00
      vertex 3.234444e+00 -8.749924e-01 2.499994e+00
    endloop
  endfacet
  facet normal 8.355240e-01 5.494540e-01 -3.364436e-17
    outer loop
      vertex 3.409416e+00 -1.124870e+00 5.499990e+00
      vertex 3.234444e+00 -8.749924e-01 2.499994e+00
      vertex 3.234444e+00 -8.749924e-01 5.499990e+00
    endloop
  endfacet
  facet normal 8.936031e-01 4.488580e-01 -2.748463e-17
    outer loop
      vertex 3.234444e+00 -8.749924e-01 5.499990e+00
      vertex 3.234444e+00 -8.749924e-01 2.499994e+00
      vertex 3.105537e+00 -5.985336e-01 2.499994e+00
    endloop
  endfacet
  facet normal 9.182422e-01 3.960194e-01 -2.424920e-17
    outer loop
      vertex 3.234444e+00 -8.749924e-01 5.499990e+00
      vertex 3.105537e+00 -5.985336e-01 2.499994e+00
      vertex 3.105537e+00 -5.985336e-01 5.499990e+00
    endloop
  endfacet
  facet normal 9.579706e-01 2.868663e-01 -1.756549e-17
    outer loop
      vertex 3.105537e+00 -5.985336e-01 5.499990e+00
      vertex 3.105537e+00 -5.985336e-01 2.499994e+00
      vertex 3.026573e+00 -3.038864e-01 2.499994e+00
    endloop
  endfacet
  facet normal 9.730600e-01 2.305519e-01 -1.411723e-17
    outer loop
      vertex 3.105537e+00 -5.985336e-01 5.499990e+00
      vertex 3.026573e+00 -3.038864e-01 2.499994e+00
      vertex 3.026573e+00 -3.038864e-01 5.499990e+00
    endloop
  endfacet
  facet normal 9.932307e-01 1.161583e-01 -7.112643e-18
    outer loop
      vertex 3.026573e+00 -3.038864e-01 5.499990e+00
      vertex 3.026573e+00 -3.038864e-01 2.499994e+00
      vertex 2.999992e+00 -7.629395e-06 2.499994e+00
    endloop
  endfacet
  facet normal 9.983119e-01 5.807913e-02 -3.556321e-18
    outer loop
      vertex 3.026573e+00 -3.038864e-01 5.499990e+00
      vertex 2.999992e+00 -7.629395e-06 2.499994e+00
      vertex 2.999992e+00 -7.629395e-06 5.499990e+00
    endloop
  endfacet
  facet normal 9.983119e-01 -5.807913e-02 3.556321e-18
    outer loop
      vertex 2.999992e+00 -7.629395e-06 5.499990e+00
      vertex 2.999992e+00 -7.629395e-06 2.499994e+00
      vertex 3.026573e+00 3.038712e-01 2.499994e+00
    endloop
  endfacet
  facet normal 9.932307e-01 -1.161583e-01 7.112643e-18
    outer loop
      vertex 2.999992e+00 -7.629395e-06 5.499990e+00
      vertex 3.026573e+00 3.038712e-01 2.499994e+00
      vertex 3.026573e+00 3.038712e-01 5.499990e+00
    endloop
  endfacet
  facet normal 9.730600e-01 -2.305519e-01 1.411723e-17
    outer loop
      vertex 3.026573e+00 3.038712e-01 5.499990e+00
      vertex 3.026573e+00 3.038712e-01 2.499994e+00
      vertex 3.105537e+00 5.985336e-01 2.499994e+00
    endloop
  endfacet
  facet normal 9.579706e-01 -2.868663e-01 1.756549e-17
    outer loop
      vertex 3.026573e+00 3.038712e-01 5.499990e+00
      vertex 3.105537e+00 5.985336e-01 2.499994e+00
      vertex 3.105537e+00 5.985336e-01 5.499990e+00
    endloop
  endfacet
  facet normal 9.182422e-01 -3.960194e-01 2.424919e-17
    outer loop
      vertex 3.105537e+00 5.985336e-01 5.499990e+00
      vertex 3.105537e+00 5.985336e-01 2.499994e+00
      vertex 3.234444e+00 8.749924e-01 2.499994e+00
    endloop
  endfacet
  facet normal 8.936031e-01 -4.488580e-01 2.748463e-17
    outer loop
      vertex 3.105537e+00 5.985336e-01 5.499990e+00
      vertex 3.234444e+00 8.749924e-01 2.499994e+00
      vertex 3.234444e+00 8.749924e-01 5.499990e+00
    endloop
  endfacet
  facet normal 8.355240e-01 -5.494540e-01 3.364436e-17
    outer loop
      vertex 3.234444e+00 8.749924e-01 5.499990e+00
      vertex 3.234444e+00 8.749924e-01 2.499994e+00
      vertex 3.409416e+00 1.124870e+00 2.499994e+00
    endloop
  endfacet
  facet normal 8.020840e-01 -5.972114e-01 3.656865e-17
    outer loop
      vertex 3.234444e+00 8.749924e-01 5.499990e+00
      vertex 3.409416e+00 1.124870e+00 2.499994e+00
      vertex 3.409416e+00 1.124870e+00 5.499990e+00
    endloop
  endfacet
  facet normal 7.274188e-01 -6.861938e-01 4.201725e-17
    outer loop
      vertex 3.409416e+00 1.124870e+00 5.499990e+00
      vertex 3.409416e+00 1.124870e+00 2.499994e+00
      vertex 3.625130e+00 1.340584e+00 2.499994e+00
    endloop
  endfacet
  facet normal 6.861938e-01 -7.274188e-01 4.454156e-17
    outer loop
      vertex 3.409416e+00 1.124870e+00 5.499990e+00
      vertex 3.625130e+00 1.340584e+00 2.499994e+00
      vertex 3.625130e+00 1.340584e+00 5.499990e+00
    endloop
  endfacet
  facet normal 5.972114e-01 -8.020840e-01 4.911348e-17
    outer loop
      vertex 3.625130e+00 1.340584e+00 5.499990e+00
      vertex 3.625130e+00 1.340584e+00 2.499994e+00
      vertex 3.875008e+00 1.515556e+00 2.499994e+00
    endloop
  endfacet
  facet normal 5.494540e-01 -8.355240e-01 5.116109e-17
    outer loop
      vertex 3.625130e+00 1.340584e+00 5.499990e+00
      vertex 3.875008e+00 1.515556e+00 2.499994e+00
      vertex 3.875008e+00 1.515556e+00 5.499990e+00
    endloop
  endfacet
  facet normal 4.488580e-01 -8.936031e-01 5.471741e-17
    outer loop
      vertex 3.875008e+00 1.515556e+00 5.499990e+00
      vertex 3.875008e+00 1.515556e+00 2.499994e+00
      vertex 4.151466e+00 1.644463e+00 2.499994e+00
    endloop
  endfacet
  facet normal 3.960194e-01 -9.182422e-01 5.622611e-17
    outer loop
      vertex 3.875008e+00 1.515556e+00 5.499990e+00
      vertex 4.151466e+00 1.644463e+00 2.499994e+00
      vertex 4.151466e+00 1.644463e+00 5.499990e+00
    endloop
  endfacet
  facet normal 2.868663e-01 -9.579706e-01 5.865879e-17
    outer loop
      vertex 4.151466e+00 1.644463e+00 5.499990e+00
      vertex 4.151466e+00 1.644463e+00 2.499994e+00
      vertex 4.446114e+00 1.723412e+00 2.499994e+00
    endloop
  endfacet
  facet normal 2.305519e-01 -9.730600e-01 5.958274e-17
    outer loop
      vertex 4.151466e+00 1.644463e+00 5.499990e+00
      vertex 4.446114e+00 1.723412e+00 2.499994e+00
      vertex 4.446114e+00 1.723412e+00 5.499990e+00
    endloop
  endfacet
  facet normal 1.161583e-01 -9.932307e-01 6.081784e-17
    outer loop
      vertex 4.446114e+00 1.723412e+00 5.499990e+00
      vertex 4.446114e+00 1.723412e+00 2.499994e+00
      vertex 4.750008e+00 1.750008e+00 2.499994e+00
    endloop
  endfacet
  facet normal 5.807913e-02 -9.983119e-01 6.112898e-17
    outer loop
      vertex -5.053871e+00 1.723412e+00 5.499990e+00
      vertex -4.749992e+00 1.750008e+00 2.499994e+00
      vertex -4.749992e+00 1.750008e+00 5.499990e+00
    endloop
  endfacet
  facet normal -5.807913e-02 -9.983119e-01 6.112898e-17
    outer loop
      vertex -4.749992e+00 1.750008e+00 5.499990e+00
      vertex -4.749992e+00 1.750008e+00 2.499994e+00
      vertex -4.446114e+00 1.723412e+00 2.499994e+00
    endloop
  endfacet
  facet normal -1.161583e-01 -9.932307e-01 6.081784e-17
    outer loop
      vertex -4.749992e+00 1.750008e+00 5.499990e+00
      vertex -4.446114e+00 1.723412e+00 2.499994e+00
      vertex -4.446114e+00 1.723412e+00 5.499990e+00
    endloop
  endfacet
  facet normal -2.305519e-01 -9.730600e-01 5.958274e-17
    outer loop
      vertex -4.446114e+00 1.723412e+00 5.499990e+00
      vertex -4.446114e+00 1.723412e+00 2.499994e+00
      vertex -4.151466e+00 1.644463e+00 2.499994e+00
    endloop
  endfacet
  facet normal -2.868663e-01 -9.579706e-01 5.865879e-17
    outer loop
      vertex -4.446114e+00 1.723412e+00 5.499990e+00
      vertex -4.151466e+00 1.644463e+00 2.499994e+00
      vertex -4.151466e+00 1.644463e+00 5.499990e+00
    endloop
  endfacet
  facet normal -3.960194e-01 -9.182422e-01 5.622611e-17
    outer loop
      vertex -4.151466e+00 1.644463e+00 5.499990e+00
      vertex -4.151466e+00 1.644463e+00 2.499994e+00
      vertex -3.875008e+00 1.515556e+00 2.499994e+00
    endloop
  endfacet
  facet normal -4.488580e-01 -8.936031e-01 5.471741e-17
    outer loop
      vertex -4.151466e+00 1.644463e+00 5.499990e+00
      vertex -3.875008e+00 1.515556e+00 2.499994e+00
      vertex -3.875008e+00 1.515556e+00 5.499990e+00
    endloop
  endfacet
  facet normal -5.494540e-01 -8.355240e-01 5.116109e-17
    outer loop
      vertex -3.875008e+00 1.515556e+00 5.499990e+00
      vertex -3.875008e+00 1.515556e+00 2.499994e+00
      vertex -3.625130e+00 1.340584e+00 2.499994e+00
    endloop
  endfacet
  facet normal -5.972114e-01 -8.020840e-01 4.911348e-17
    outer loop
      vertex -3.875008e+00 1.515556e+00 5.499990e+00
      vertex -3.625130e+00 1.340584e+00 2.499994e+00
      vertex -3.625130e+00 1.340584e+00 5.499990e+00
    endloop
  endfacet
  facet normal -6.861938e-01 -7.274188e-01 4.454156e-17
    outer loop
      vertex -3.625130e+00 1.340584e+00 5.499990e+00
      vertex -3.625130e+00 1.340584e+00 2.499994e+00
      vertex -3.409416e+00 1.124870e+00 2.499994e+00
    endloop
  endfacet
  facet normal -7.274188e-01 -6.861938e-01 4.201725e-17
    outer loop
      vertex -3.625130e+00 1.340584e+00 5.499990e+00
      vertex -3.409416e+00 1.124870e+00 2.499994e+00
      vertex -3.409416e+00 1.124870e+00 5.499990e+00
    endloop
  endfacet
  facet normal -8.020840e-01 -5.972114e-01 3.656865e-17
    outer loop
      vertex -3.409416e+00 1.124870e+00 5.499990e+00
      vertex -3.409416e+00 1.124870e+00 2.499994e+00
      vertex -3.234444e+00 8.749924e-01 2.499994e+00
    endloop
  endfacet
  facet normal -8.355240e-01 -5.494540e-01 3.364436e-17
    outer loop
      vertex -3.409416e+00 1.124870e+00 5.499990e+00
      vertex -3.234444e+00 8.749924e-01 2.499994e+00
      vertex -3.234444e+00 8.749924e-01 5.499990e+00
    endloop
  endfacet
  facet normal -8.936031e-01 -4.488580e-01 2.748463e-17
    outer loop
      vertex -3.234444e+00 8.749924e-01 5.499990e+00
      vertex -3.234444e+00 8.749924e-01 2.499994e+00
      vertex -3.105537e+00 5.985336e-01 2.499994e+00
    endloop
  endfacet
  facet normal -9.182422e-01 -3.960194e-01 2.424920e-17
    outer loop
      vertex -3.234444e+00 8.749924e-01 5.499990e+00
      vertex -3.105537e+00 5.985336e-01 2.499994e+00
      vertex -3.105537e+00 5.985336e-01 5.499990e+00
    endloop
  endfacet
  facet normal -9.579706e-01 -2.868663e-01 1.756549e-17
    outer loop
      vertex -3.105537e+00 5.985336e-01 5.499990e+00
      vertex -3.105537e+00 5.985336e-01 2.499994e+00
      vertex -3.026588e+00 3.038712e-01 2.499994e+00
    endloop
  endfacet
  facet normal -9.730600e-01 -2.305519e-01 1.411723e-17
    outer loop
      vertex -3.105537e+00 5.985336e-01 5.499990e+00
      vertex -3.026588e+00 3.038712e-01 2.499994e+00
      vertex -3.026588e+00 3.038712e-01 5.499990e+00
    endloop
  endfacet
  facet normal -9.932307e-01 -1.161583e-01 7.112643e-18
    outer loop
      vertex -3.026588e+00 3.038712e-01 5.499990e+00
      vertex -3.026588e+00 3.038712e-01 2.499994e+00
      vertex -2.999992e+00 -7.629395e-06 2.499994e+00
    endloop
  endfacet
  facet normal -9.983119e-01 -5.807913e-02 3.556321e-18
    outer loop
      vertex -3.026588e+00 3.038712e-01 5.499990e+00
      vertex -2.999992e+00 -7.629395e-06 2.499994e+00
      vertex -2.999992e+00 -7.629395e-06 5.499990e+00
    endloop
  endfacet
  facet normal -9.983119e-01 5.807913e-02 -3.556321e-18
    outer loop
      vertex -2.999992e+00 -7.629395e-06 5.499990e+00
      vertex -2.999992e+00 -7.629395e-06 2.499994e+00
      vertex -3.026588e+00 -3.038864e-01 2.499994e+00
    endloop
  endfacet
  facet normal -9.932307e-01 1.161583e-01 -7.112643e-18
    outer loop
      vertex -2.999992e+00 -7.629395e-06 5.499990e+00
      vertex -3.026588e+00 -3.038864e-01 2.499994e+00
      vertex -3.026588e+00 -3.038864e-01 5.499990e+00
    endloop
  endfacet
  facet normal -9.730600e-01 2.305519e-01 -1.411723e-17
    outer loop
      vertex -3.026588e+00 -3.038864e-01 5.499990e+00
      vertex -3.026588e+00 -3.038864e-01 2.499994e+00
      vertex -3.105537e+00 -5.985336e-01 2.499994e+00
    endloop
  endfacet
  facet normal -9.579706e-01 2.868663e-01 -1.756549e-17
    outer loop
      vertex -3.026588e+00 -3.038864e-01 5.499990e+00
      vertex -3.105537e+00 -5.985336e-01 2.499994e+00
      vertex -3.105537e+00 -5.985336e-01 5.499990e+00
    endloop
  endfacet
  facet normal -9.182422e-01 3.960194e-01 -2.424919e-17
    outer loop
      vertex -3.105537e+00 -5.985336e-01 5.499990e+00
      vertex -3.105537e+00 -5.985336e-01 2.499994e+00
      vertex -3.234444e+00 -8.749924e-01 2.499994e+00
    endloop
  endfacet
  facet normal -8.936031e-01 4.488580e-01 -2.748463e-17
    outer loop
      vertex -3.105537e+00 -5.985336e-01 5.499990e+00
      vertex -3.234444e+00 -8.749924e-01 2.499994e+00
      vertex -3.234444e+00 -8.749924e-01 5.499990e+00
    endloop
  endfacet
  facet normal -8.355240e-01 5.494540e-01 -3.364436e-17
    outer loop
      vertex -3.234444e+00 -8.749924e-01 5.499990e+00
      vertex -3.234444e+00 -8.749924e-01 2.499994e+00
      vertex -3.409416e+00 -1.124870e+00 2.499994e+00
    endloop
  endfacet
  facet normal -8.020840e-01 5.972114e-01 -3.656865e-17
    outer loop
      vertex -3.234444e+00 -8.749924e-01 5.499990e+00
      vertex -3.409416e+00 -1.124870e+00 2.499994e+00
      vertex -3.409416e+00 -1.124870e+00 5.499990e+00
    endloop
  endfacet
  facet normal -7.274188e-01 6.861938e-01 -4.201725e-17
    outer loop
      vertex -3.409416e+00 -1.124870e+00 5.499990e+00
      vertex -3.409416e+00 -1.124870e+00 2.499994e+00
      vertex -3.625130e+00 -1.340584e+00 2.499994e+00
    endloop
  endfacet
  facet normal -6.861938e-01 7.274188e-01 -4.454156e-17
    outer loop
      vertex -3.409416e+00 -1.124870e+00 5.499990e+00
      vertex -3.625130e+00 -1.340584e+00 2.499994e+00
      vertex -3.625130e+00 -1.340584e+00 5.499990e+00
    endloop
  endfacet
  facet normal -5.972114e-01 8.020840e-01 -4.911348e-17
    outer loop
      vertex -3.625130e+00 -1.340584e+00 5.499990e+00
      vertex -3.625130e+00 -1.340584e+00 2.499994e+00
      vertex -3.875008e+00 -1.515541e+00 2.499994e+00
    endloop
  endfacet
  facet normal -5.494540e-01 8.355240e-01 -5.116109e-17
    outer loop
      vertex -3.625130e+00 -1.340584e+00 5.499990e+00
      vertex -3.875008e+00 -1.515541e+00 2.499994e+00
      vertex -3.875008e+00 -1.515541e+00 5.499990e+00
    endloop
  endfacet
  facet normal -4.488580e-01 8.936031e-01 -5.471741e-17
    outer loop
      vertex -3.875008e+00 -1.515541e+00 5.499990e+00
      vertex -3.875008e+00 -1.515541e+00 2.499994e+00
      vertex -4.151466e+00 -1.644463e+00 2.499994e+00
    endloop
  endfacet
  facet normal -3.960194e-01 9.182422e-01 -5.622611e-17
    outer loop
      vertex -3.875008e+00 -1.515541e+00 5.499990e+00
      vertex -4.151466e+00 -1.644463e+00 2.499994e+00
      vertex -4.151466e+00 -1.644463e+00 5.499990e+00
    endloop
  endfacet
  facet normal -2.868663e-01 9.579706e-01 -5.865879e-17
    outer loop
      vertex -4.151466e+00 -1.644463e+00 5.499990e+00
      vertex -4.151466e+00 -1.644463e+00 2.499994e+00
      vertex -4.446114e+00 -1.723412e+00 2.499994e+00
    endloop
  endfacet
  facet normal -2.305519e-01 9.730600e-01 -5.958274e-17
    outer loop
      vertex -4.151466e+00 -1.644463e+00 5.499990e+00
      vertex -4.446114e+00 -1.723412e+00 2.499994e+00
      vertex -4.446114e+00 -1.723412e+00 5.499990e+00
    endloop
  endfacet
  facet normal -1.161583e-01 9.932307e-01 -6.081784e-17
    outer loop
      vertex -4.446114e+00 -1.723412e+00 5.499990e+00
      vertex -4.446114e+00 -1.723412e+00 2.499994e+00
      vertex -4.749992e+00 -1.750008e+00 2.499994e+00
    endloop
  endfacet
  facet normal -5.807913e-02 9.983119e-01 -6.112898e-17
    outer loop
      vertex -4.446114e+00 -1.723412e+00 5.499990e+00
      vertex -4.749992e+00 -1.750008e+00 2.499994e+00
      vertex -4.749992e+00 -1.750008e+00 5.499990e+00
    endloop
  endfacet
  facet normal 5.807913e-02 9.983119e-01 -6.112898e-17
    outer loop
      vertex -4.749992e+00 -1.750008e+00 5.499990e+00
      vertex -4.749992e+00 -1.750008e+00 2.499994e+00
      vertex -5.053871e+00 -1.723412e+00 2.499994e+00
    endloop
  endfacet
  facet normal 1.161583e-01 9.932307e-01 -6.081784e-17
    outer loop
      vertex -4.749992e+00 -1.750008e+00 5.499990e+00
      vertex -5.053871e+00 -1.723412e+00 2.499994e+00
      vertex -5.053871e+00 -1.723412e+00 5.499990e+00
    endloop
  endfacet
  facet normal 2.305519e-01 9.730600e-01 -5.958274e-17
    outer loop
      vertex -5.053871e+00 -1.723412e+00 5.499990e+00
      vertex -5.053871e+00 -1.723412e+00 2.499994e+00
      vertex -5.348534e+00 -1.644463e+00 2.499994e+00
    endloop
  endfacet
  facet normal 2.868663e-01 9.579706e-01 -5.865879e-17
    outer loop
      vertex -5.053871e+00 -1.723412e+00 5.499990e+00
      vertex -5.348534e+00 -1.644463e+00 2.499994e+00
      vertex -5.348534e+00 -1.644463e+00 5.499990e+00
    endloop
  endfacet
  facet normal 3.960194e-01 9.182422e-01 -5.622611e-17
    outer loop
      vertex -5.348534e+00 -1.644463e+00 5.499990e+00
      vertex -5.348534e+00 -1.644463e+00 2.499994e+00
      vertex -5.625008e+00 -1.515541e+00 2.499994e+00
    endloop
  endfacet
  facet normal 4.488580e-01 8.936031e-01 -5.471741e-17
    outer loop
      vertex -5.348534e+00 -1.644463e+00 5.499990e+00
      vertex -5.625008e+00 -1.515541e+00 2.499994e+00
      vertex -5.625008e+00 -1.515541e+00 5.499990e+00
    endloop
  endfacet
  facet normal 5.494540e-01 8.355240e-01 -5.116109e-17
    outer loop
      vertex -5.625008e+00 -1.515541e+00 5.499990e+00
      vertex -5.625008e+00 -1.515541e+00 2.499994e+00
      vertex -5.874870e+00 -1.340584e+00 2.499994e+00
    endloop
  endfacet
  facet normal 5.972114e-01 8.020840e-01 -4.911348e-17
    outer loop
      vertex -5.625008e+00 -1.515541e+00 5.499990e+00
      vertex -5.874870e+00 -1.340584e+00 2.499994e+00
      vertex -5.874870e+00 -1.340584e+00 5.499990e+00
    endloop
  endfacet
  facet normal 6.861938e-01 7.274188e-01 -4.454156e-17
    outer loop
      vertex -5.874870e+00 -1.340584e+00 5.499990e+00
      vertex -5.874870e+00 -1.340584e+00 2.499994e+00
      vertex -6.090584e+00 -1.124870e+00 2.499994e+00
    endloop
  endfacet
  facet normal 7.274188e-01 6.861938e-01 -4.201725e-17
    outer loop
      vertex -5.874870e+00 -1.340584e+00 5.499990e+00
      vertex -6.090584e+00 -1.124870e+00 2.499994e+00
      vertex -6.090584e+00 -1.124870e+00 5.499990e+00
    endloop
  endfacet
  facet normal 8.020840e-01 5.972114e-01 -3.656865e-17
    outer loop
      vertex -6.090584e+00 -1.124870e+00 5.499990e+00
      vertex -6.090584e+00 -1.124870e+00 2.499994e+00
      vertex -6.265556e+00 -8.749924e-01 2.499994e+00
    endloop
  endfacet
  facet normal 8.355240e-01 5.494540e-01 -3.364436e-17
    outer loop
      vertex -6.090584e+00 -1.124870e+00 5.499990e+00
      vertex -6.265556e+00 -8.749924e-01 2.499994e+00
      vertex -6.265556e+00 -8.749924e-01 5.499990e+00
    endloop
  endfacet
  facet normal 8.936031e-01 4.488580e-01 -2.748463e-17
    outer loop
      vertex -6.265556e+00 -8.749924e-01 5.499990e+00
      vertex -6.265556e+00 -8.749924e-01 2.499994e+00
      vertex -6.394463e+00 -5.985336e-01 2.499994e+00
    endloop
  endfacet
  facet normal 9.182422e-01 3.960194e-01 -2.424920e-17
    outer loop
      vertex -6.265556e+00 -8.749924e-01 5.499990e+00
      vertex -6.394463e+00 -5.985336e-01 2.499994e+00
      vertex -6.394463e+00 -5.985336e-01 5.499990e+00
    endloop
  endfacet
  facet normal 9.579706e-01 2.868663e-01 -1.756549e-17
    outer loop
      vertex -6.394463e+00 -5.985336e-01 5.499990e+00
      vertex -6.394463e+00 -5.985336e-01 2.499994e+00
      vertex -6.473427e+00 -3.038864e-01 2.499994e+00
    endloop
  endfacet
  facet normal 9.730600e-01 2.305519e-01 -1.411723e-17
    outer loop
      vertex -6.394463e+00 -5.985336e-01 5.499990e+00
      vertex -6.473427e+00 -3.038864e-01 2.499994e+00
      vertex -6.473427e+00 -3.038864e-01 5.499990e+00
    endloop
  endfacet
  facet normal 9.932307e-01 1.161583e-01 -7.112643e-18
    outer loop
      vertex -6.473427e+00 -3.038864e-01 5.499990e+00
      vertex -6.473427e+00 -3.038864e-01 2.499994e+00
      vertex -6.500008e+00 -7.629395e-06 2.499994e+00
    endloop
  endfacet
  facet normal 9.983119e-01 5.807913e-02 -3.556321e-18
    outer loop
      vertex -6.473427e+00 -3.038864e-01 5.499990e+00
      vertex -6.500008e+00 -7.629395e-06 2.499994e+00
      vertex -6.500008e+00 -7.629395e-06 5.499990e+00
    endloop
  endfacet
  facet normal 9.983119e-01 -5.807913e-02 3.556321e-18
    outer loop
      vertex -6.500008e+00 -7.629395e-06 5.499990e+00
      vertex -6.500008e+00 -7.629395e-06 2.499994e+00
      vertex -6.473427e+00 3.038712e-01 2.499994e+00
    endloop
  endfacet
  facet normal 9.932307e-01 -1.161583e-01 7.112643e-18
    outer loop
      vertex -6.500008e+00 -7.629395e-06 5.499990e+00
      vertex -6.473427e+00 3.038712e-01 2.499994e+00
      vertex -6.473427e+00 3.038712e-01 5.499990e+00
    endloop
  endfacet
  facet normal 9.730600e-01 -2.305519e-01 1.411723e-17
    outer loop
      vertex -6.473427e+00 3.038712e-01 5.499990e+00
      vertex -6.473427e+00 3.038712e-01 2.499994e+00
      vertex -6.394463e+00 5.985336e-01 2.499994e+00
    endloop
  endfacet
  facet normal 9.579706e-01 -2.868663e-01 1.756549e-17
    outer loop
      vertex -6.473427e+00 3.038712e-01 5.499990e+00
      vertex -6.394463e+00 5.985336e-01 2.499994e+00
      vertex -6.394463e+00 5.985336e-01 5.499990e+00
    endloop
  endfacet
  facet normal 9.182422e-01 -3.960194e-01 2.424919e-17
    outer loop
      vertex -6.394463e+00 5.985336e-01 5.499990e+00
      vertex -6.394463e+00 5.985336e-01 2.499994e+00
      vertex -6.265556e+00 8.749924e-01 2.499994e+00
    endloop
  endfacet
  facet normal 8.936031e-01 -4.488580e-01 2.748463e-17
    outer loop
      vertex -6.394463e+00 5.985336e-01 5.499990e+00
      vertex -6.265556e+00 8.749924e-01 2.499994e+00
      vertex -6.265556e+00 8.749924e-01 5.499990e+00
    endloop
  endfacet
  facet normal 8.355240e-01 -5.494540e-01 3.364436e-17
    outer loop
      vertex -6.265556e+00 8.749924e-01 5.499990e+00
      vertex -6.265556e+00 8.749924e-01 2.499994e+00
      vertex -6.090584e+00 1.124870e+00 2.499994e+00
    endloop
  endfacet
  facet normal 8.020840e-01 -5.972114e-01 3.656865e-17
    outer loop
      vertex -6.265556e+00 8.749924e-01 5.499990e+00
      vertex -6.090584e+00 1.124870e+00 2.499994e+00
      vertex -6.090584e+00 1.124870e+00 5.499990e+00
    endloop
  endfacet
  facet normal 7.274188e-01 -6.861938e-01 4.201725e-17
    outer loop
      vertex -6.090584e+00 1.124870e+00 5.499990e+00
      vertex -6.090584e+00 1.124870e+00 2.499994e+00
      vertex -5.874870e+00 1.340584e+00 2.499994e+00
    endloop
  endfacet
  facet normal 6.861938e-01 -7.274188e-01 4.454156e-17
    outer loop
      vertex -6.090584e+00 1.124870e+00 5.499990e+00
      vertex -5.874870e+00 1.340584e+00 2.499994e+00
      vertex -5.874870e+00 1.340584e+00 5.499990e+00
    endloop
  endfacet
  facet normal 5.972114e-01 -8.020840e-01 4.911348e-17
    outer loop
      vertex -5.874870e+00 1.340584e+00 5.499990e+00
      vertex -5.874870e+00 1.340584e+00 2.499994e+00
      vertex -5.625008e+00 1.515556e+00 2.499994e+00
    endloop
  endfacet
  facet normal 5.494540e-01 -8.355240e-01 5.116109e-17
    outer loop
      vertex -5.874870e+00 1.340584e+00 5.499990e+00
      vertex -5.625008e+00 1.515556e+00 2.499994e+00
      vertex -5.625008e+00 1.515556e+00 5.499990e+00
    endloop
  endfacet
  facet normal 4.488580e-01 -8.936031e-01 5.471741e-17
    outer loop
      vertex -5.625008e+00 1.515556e+00 5.499990e+00
      vertex -5.625008e+00 1.515556e+00 2.499994e+00
      vertex -5.348534e+00 1.644463e+00 2.499994e+00
    endloop
  endfacet
  facet normal 3.960194e-01 -9.182422e-01 5.622611e-17
    outer loop
      vertex -5.625008e+00 1.515556e+00 5.499990e+00
      vertex -5.348534e+00 1.644463e+00 2.499994e+00
      vertex -5.348534e+00 1.644463e+00 5.499990e+00
    endloop
  endfacet
  facet normal 2.868663e-01 -9.579706e-01 5.865879e-17
    outer loop
      vertex -5.348534e+00 1.644463e+00 5.499990e+00
      vertex -5.348534e+00 1.644463e+00 2.499994e+00
      vertex -5.053871e+00 1.723412e+00 2.499994e+00
    endloop
  endfacet
  facet normal 2.305519e-01 -9.730600e-01 5.958274e-17
    outer loop
      vertex -5.348534e+00 1.644463e+00 5.499990e+00
      vertex -5.053871e+00 1.723412e+00 2.499994e+00
      vertex -5.053871e+00 1.723412e+00 5.499990e+00
    endloop
  endfacet
  facet normal 1.161583e-01 -9.932307e-01 6.081784e-17
    outer loop
      vertex -5.053871e+00 1.723412e+00 5.499990e+00
      vertex -5.053871e+00 1.723412e+00 2.499994e+00
      vertex -4.749992e+00 1.750008e+00 2.499994e+00
    endloop
  endfacet
endsolid Default
